<?xml version="1.0" encoding="UTF-8" standalone="no"?>
<!-- Created with Inkscape (http://www.inkscape.org/) -->

<svg
   xmlns:dc="http://purl.org/dc/elements/1.1/"
   xmlns:cc="http://creativecommons.org/ns#"
   xmlns:rdf="http://www.w3.org/1999/02/22-rdf-syntax-ns#"
   xmlns:svg="http://www.w3.org/2000/svg"
   xmlns:xlink="http://www.w3.org/1999/xlink"
   xmlns="http://www.w3.org/2000/svg"
   version="1.1"
   width="256"
   height="256"
   viewBox="0 0 256 256"
   id="svg2"
   xml:space="preserve"><title
   id="title2910">facebook web</title><metadata
   id="metadata38"><rdf:RDF><cc:Work
       rdf:about=""><dc:format>image/svg+xml</dc:format><dc:type
         rdf:resource="http://purl.org/dc/dcmitype/StillImage" /><dc:title>facebook web</dc:title></cc:Work></rdf:RDF></metadata><defs
   id="defs36" />


<linearGradient
   x1="93.999496"
   y1="1181.167"
   x2="93.999496"
   y2="1308.795"
   id="SVGID_1_"
   gradientUnits="userSpaceOnUse"
   gradientTransform="translate(34,-1170)">
	<stop
   id="stop6"
   style="stop-color:#ffffff;stop-opacity:0.85000002"
   offset="0" />
	<stop
   id="stop8"
   style="stop-color:#ffffff;stop-opacity:0"
   offset="0.66000003" />
</linearGradient>




<a
   xlink:href="http://www.facebook.com/togald/"
   target="_top"><g
     id="g4207"><path
       d="M 209.018,10.505 H 44.983 c -19.599,0 -35.487,15.888 -35.487,35.487 v 164.015 c 0,19.599 15.888,35.486 35.487,35.486 h 164.033 c 19.604,0 35.487,-15.888 37.487,-34.819 V 46.66 C 244.504,26.394 228.615,10.505 209.018,10.505 z"
       id="rect1942_1_"
       style="fill:#0037c1" /><path
       d="M 209.018,10.505 H 44.983 c -19.599,0 -35.487,15.889 -35.487,35.487 v 69.409 c 36.33,14.751 76.046,22.896 117.671,22.896 42.263,0 82.558,-8.395 119.336,-23.576 V 46.66 C 244.504,26.394 228.615,10.505 209.018,10.505 z"
       id="path10"
       style="fill:url(#SVGID_1_)" /><g
       transform="translate(-373.642,-318.344)"
       id="layer1">
	<g
   transform="matrix(1.7982054,0,0,1.8129643,376.63343,326.35613)"
   id="Layer_3">
		<path
   d="M 93.376,117.012 H 72.203 V 65.767 H 61.625 V 48.107 H 72.203 V 37.504 c 0,-14.407 5.973,-22.974 22.943,-22.974 h 14.128 v 17.662 h -8.831 c -6.606,0 -7.043,2.468 -7.043,7.074 l -0.024,8.839 h 15.998 l -1.871,17.66 H 93.376 v 51.247 z"
   id="path3336"
   style="fill:#ffffff" />
	</g>
</g><g
       id="g15">
	
		<linearGradient
   x1="93.999496"
   y1="1308.001"
   x2="93.999496"
   y2="1415.5118"
   id="SVGID_2_"
   gradientUnits="userSpaceOnUse"
   gradientTransform="translate(34,-1170)">
		<stop
   id="stop18"
   style="stop-color:#000000;stop-opacity:0.15000001"
   offset="0" />
		<stop
   id="stop20"
   style="stop-color:#000000;stop-opacity:0"
   offset="0.66259998" />
	</linearGradient>
	<path
   d="m 9.496,115.401 v 94.605 c 0,19.6 15.888,35.486 35.487,35.486 h 164.033 c 19.604,0 35.488,-15.889 37.488,-34.819 V 114.721 C 209.725,129.902 169.43,138.297 127.167,138.297 85.542,138.298 45.825,130.152 9.496,115.401 z"
   id="path22"
   style="fill:url(#SVGID_2_)" />
</g><path
       d="M 246.503,114.721 V 46.66 C 244.504,26.394 228.615,10.505 209.018,10.505 H 44.982 c -19.599,0 -35.486,15.889 -35.486,35.487 v 69.409"
       id="path24"
       style="fill:none;stroke:#0037c1;stroke-width:2;stroke-miterlimit:10" /><g
       id="g26">
	<g
   id="g28">
		<g
   id="g30">
			<path
   d="m 9.496,115.401 v 94.605 c 0,19.6 15.888,35.486 35.486,35.486 h 164.034 c 19.604,0 35.487,-15.889 37.487,-34.819 v -95.952"
   id="path32"
   style="fill:none;stroke:#002c99;stroke-width:2;stroke-miterlimit:10" />
		</g>
	</g>
</g></g></a>
</svg>