<?xml version="1.0" encoding="UTF-8" standalone="no"?>
<!-- Created with Inkscape (http://www.inkscape.org/) -->

<svg
   xmlns:dc="http://purl.org/dc/elements/1.1/"
   xmlns:cc="http://creativecommons.org/ns#"
   xmlns:rdf="http://www.w3.org/1999/02/22-rdf-syntax-ns#"
   xmlns:svg="http://www.w3.org/2000/svg"
   xmlns:xlink="http://www.w3.org/1999/xlink"
   xmlns="http://www.w3.org/2000/svg"
   version="1.1"
   width="256"
   height="256"
   viewBox="0 0 256 256"
   id="svg2"
   xml:space="preserve"><metadata
   id="metadata37"><rdf:RDF><cc:Work
       rdf:about=""><dc:format>image/svg+xml</dc:format><dc:type
         rdf:resource="http://purl.org/dc/dcmitype/StillImage" /><dc:title></dc:title></cc:Work></rdf:RDF></metadata><defs
   id="defs35" />
<a
   xlink:href="http://plus.google.com/"
   target="_top">
<path
   d="M 209.018,10.505 H 44.983 c -19.599,0 -35.487,15.888 -35.487,35.487 v 164.015 c 0,19.599 15.888,35.486 35.487,35.486 h 164.033 c 19.604,0 35.487,-15.888 37.487,-34.819 V 46.66 C 244.504,26.394 228.615,10.505 209.018,10.505 z"
   id="rect1942_1_"
   style="fill:#dd4b38" />
<linearGradient
   x1="93.999496"
   y1="1181.167"
   x2="93.999496"
   y2="1308.795"
   id="SVGID_1_"
   gradientUnits="userSpaceOnUse"
   gradientTransform="translate(34,-1170)">
	<stop
   id="stop5"
   style="stop-color:#ffffff;stop-opacity:0.85000002"
   offset="0" />
	<stop
   id="stop7"
   style="stop-color:#ffffff;stop-opacity:0"
   offset="0.66000003" />
</linearGradient>
<path
   d="M 209.018,10.505 H 44.983 c -19.599,0 -35.487,15.889 -35.487,35.487 v 69.409 c 36.33,14.751 76.046,22.896 117.671,22.896 42.263,0 82.558,-8.395 119.336,-23.576 V 46.66 C 244.504,26.394 228.615,10.505 209.018,10.505 z"
   id="path9"
   style="fill:url(#SVGID_1_)" />
<polygon
   points="202.141,27.97 202.141,71.183 245.51,71.183 245.51,89.32 202.141,89.32 202.141,132.926 183.615,132.926 183.615,89.32 140.404,89.32 140.404,71.183 183.615,71.183 183.615,27.97 "
   id="_x2B__3_"
   style="fill:#ffffff" />
<path
   d="m 107.66,177.771 -12.285,-9.555 c -3.738,-3.088 -8.846,-7.187 -8.846,-14.706 0,-7.53 5.108,-12.331 9.54,-16.77 14.312,-11.268 27.649,-23.257 27.649,-48.562 0,-23.098 -12.479,-36.074 -20.848,-43.323 2.801,0 20.882,0 20.882,0 l 19.13,-15.433 h -72.03 c -17.865,0.328 -39.176,3.019 -58.605,19.091 -0.909,0.781 -1.889,1.7 -2.751,2.517 v 83.348 c 9.35,7.764 22.037,13.646 37.5,13.646 3.415,0 7.152,-0.352 10.91,-0.678 -1.702,4.104 -3.41,7.527 -3.41,13.342 0,10.595 5.448,17.074 10.218,23.248 -13.021,0.881 -39.776,-1.33 -55.218,11.017 0,0 0,10.585 0,14.336 0,3.751 0.308,5.339 0.308,5.339 7.033,-9.562 17.964,-13.833 22.888,-15.632 14.305,-4.791 32.721,-5.479 35.8,-5.479 3.391,0 5.089,0 7.81,0.354 25.908,18.479 44.475,27.978 44.674,45.452 0.028,3.388 -0.928,4.443 -1.436,6.176 h 19.944 c 2.068,-4.807 2.75,-10.477 2.75,-16.807 -0.004,-23.61 -19.591,-38.258 -34.574,-50.921 z m -43.484,-43.39 c -29.311,0 -41.338,-33.891 -41.338,-56.788 0,-8.916 0.888,-18.135 6.687,-25.319 5.46,-6.839 14.988,-11.282 23.861,-11.282 28.273,0 42.546,38.295 42.546,62.923 0,4.933 -2.508,14.579 -8.909,21.906 -5.598,6.387 -14.335,8.56 -22.847,8.56 z"
   id="path12"
   style="fill:#ffffff" />
<g
   id="g14">
	
		<linearGradient
   x1="93.999496"
   y1="1308.001"
   x2="93.999496"
   y2="1415.5118"
   id="SVGID_2_"
   gradientUnits="userSpaceOnUse"
   gradientTransform="translate(34,-1170)">
		<stop
   id="stop17"
   style="stop-color:#000000;stop-opacity:0.15000001"
   offset="0" />
		<stop
   id="stop19"
   style="stop-color:#000000;stop-opacity:0"
   offset="0.66259998" />
	</linearGradient>
	<path
   d="m 9.496,115.401 v 94.605 c 0,19.6 15.888,35.486 35.487,35.486 h 164.033 c 19.604,0 35.488,-15.889 37.488,-34.819 V 114.721 C 209.725,129.902 169.43,138.297 127.167,138.297 85.542,138.298 45.825,130.152 9.496,115.401 z"
   id="path21"
   style="fill:url(#SVGID_2_)" />
</g>
<path
   d="M 246.503,114.721 V 46.66 C 244.504,26.394 228.615,10.505 209.018,10.505 H 44.982 c -19.599,0 -35.486,15.889 -35.486,35.487 v 69.409"
   id="path23"
   style="fill:none;stroke:#dd4b38;stroke-width:2;stroke-miterlimit:10" />
<g
   id="g25">
	<g
   id="g27">
		<g
   id="g29">
			<path
   d="m 9.496,115.401 v 94.605 c 0,19.6 15.888,35.486 35.486,35.486 h 164.034 c 19.604,0 35.487,-15.889 37.487,-34.819 v -95.952"
   id="path31"
   style="fill:none;stroke:#b03c2d;stroke-width:2;stroke-miterlimit:10" />
		</g>
	</g>
</g>
</a>
</svg>